<svg width="512" height="512" viewBox="0 0 512 512" fill="none" xmlns="http://www.w3.org/2000/svg">
<path fill-rule="evenodd" clip-rule="evenodd" d="M128 32C74.9807 32 32 74.9807 32 128V384C32 437.019 74.9807 480 128 480H384C437.019 480 480 437.019 480 384V128C480 74.9807 437.019 32 384 32H128ZM176.001 116.001C169.374 107.165 156.838 105.374 148.001 112.001C139.165 118.629 137.374 131.165 144.001 140.001L236.001 262.668V384.001C236.001 395.047 244.955 404.001 256.001 404.001C267.047 404.001 276.001 395.047 276.001 384.001V262.668L368.001 140.001C374.629 131.165 372.838 118.629 364.001 112.001C355.165 105.374 342.629 107.165 336.001 116.001L256.001 222.668L176.001 116.001Z" fill="#12505c" id="id_101"></path>
</svg>